<?xml version="1.0" encoding="utf-8" standalone="no"?>
<!DOCTYPE svg PUBLIC "-//W3C//DTD SVG 1.1//EN"
  "http://www.w3.org/Graphics/SVG/1.1/DTD/svg11.dtd">
<svg xmlns:xlink="http://www.w3.org/1999/xlink" width="216pt" height="252pt" viewBox="0 0 216 252" xmlns="http://www.w3.org/2000/svg" version="1.1">
 <metadata>
  <rdf:RDF xmlns:dc="http://purl.org/dc/elements/1.1/" xmlns:cc="http://creativecommons.org/ns#" xmlns:rdf="http://www.w3.org/1999/02/22-rdf-syntax-ns#">
   <cc:Work>
    <dc:type rdf:resource="http://purl.org/dc/dcmitype/StillImage"/>
    <dc:date>2025-08-11T11:56:32.895196</dc:date>
    <dc:format>image/svg+xml</dc:format>
    <dc:creator>
     <cc:Agent>
      <dc:title>Matplotlib v3.5.1, https://matplotlib.org/</dc:title>
     </cc:Agent>
    </dc:creator>
   </cc:Work>
  </rdf:RDF>
 </metadata>
 <defs>
  <style type="text/css">*{stroke-linejoin: round; stroke-linecap: butt}</style>
 </defs>
 <g id="figure_1">
  <g id="patch_1">
   <path d="M 0 252 
L 216 252 
L 216 0 
L 0 0 
L 0 252 
z
" style="fill: none"/>
  </g>
  <g id="axes_1">
   <g id="patch_2">
    <path d="M 47.675 210.2 
L 205.2 210.2 
L 205.2 10.8 
L 47.675 10.8 
z
" style="fill: #ffffff"/>
   </g>
   <g id="patch_3">
    <path d="M 49.696571 33.109779 
L 54.842388 33.109779 
L 54.842388 31.22418 
L 49.696571 31.22418 
L 49.696571 33.109779 
z
" clip-path="url(#p579fd6dee9)" style="fill: #20b1df"/>
   </g>
   <g id="patch_4">
    <path d="M 54.947404 54.367289 
L 60.093221 54.367289 
L 60.093221 51.89244 
L 54.947404 51.89244 
L 54.947404 54.367289 
z
" clip-path="url(#p579fd6dee9)" style="fill: #eb7f75"/>
   </g>
   <g id="patch_5">
    <path d="M 60.198238 25.365729 
L 65.344054 25.365729 
L 65.344054 21.534296 
L 60.198238 21.534296 
L 60.198238 25.365729 
z
" clip-path="url(#p579fd6dee9)" style="fill: #dfdf20"/>
   </g>
   <g id="patch_6">
    <path d="M 69.387196 36.807648 
L 74.533013 36.807648 
L 74.533013 34.228044 
L 69.387196 34.228044 
L 69.387196 36.807648 
z
" clip-path="url(#p579fd6dee9)" style="fill: #20b1df"/>
   </g>
   <g id="patch_7">
    <path d="M 74.638029 56.949512 
L 79.783846 56.949512 
L 79.783846 54.126351 
L 74.638029 54.126351 
L 74.638029 56.949512 
z
" clip-path="url(#p579fd6dee9)" style="fill: #eb7f75"/>
   </g>
   <g id="patch_8">
    <path d="M 79.888863 27.303705 
L 85.034679 27.303705 
L 85.034679 24.30246 
L 79.888863 24.30246 
L 79.888863 27.303705 
z
" clip-path="url(#p579fd6dee9)" style="fill: #dfdf20"/>
   </g>
   <g id="patch_9">
    <path d="M 89.077821 38.12233 
L 94.223638 38.12233 
L 94.223638 34.937762 
L 89.077821 34.937762 
L 89.077821 38.12233 
z
" clip-path="url(#p579fd6dee9)" style="fill: #20b1df"/>
   </g>
   <g id="patch_10">
    <path d="M 94.328654 61.797073 
L 99.474471 61.797073 
L 99.474471 57.902787 
L 94.328654 57.902787 
L 94.328654 61.797073 
z
" clip-path="url(#p579fd6dee9)" style="fill: #eb7f75"/>
   </g>
   <g id="patch_11">
    <path d="M 99.579487 28.466491 
L 104.725304 28.466491 
L 104.725304 25.106459 
L 99.579487 25.106459 
L 99.579487 28.466491 
z
" clip-path="url(#p579fd6dee9)" style="fill: #dfdf20"/>
   </g>
   <g id="patch_12">
    <path d="M 108.768446 42.990842 
L 113.914263 42.990842 
L 113.914263 39.617714 
L 108.768446 39.617714 
L 108.768446 42.990842 
z
" clip-path="url(#p579fd6dee9)" style="fill: #20b1df"/>
   </g>
   <g id="patch_13">
    <path d="M 114.019279 76.083104 
L 119.165096 76.083104 
L 119.165096 64.599282 
L 114.019279 64.599282 
L 114.019279 76.083104 
z
" clip-path="url(#p579fd6dee9)" style="fill: #eb7f75"/>
   </g>
   <g id="patch_14">
    <path d="M 119.270113 38.533495 
L 124.415929 38.533495 
L 124.415929 30.404468 
L 119.270113 30.404468 
L 119.270113 38.533495 
z
" clip-path="url(#p579fd6dee9)" style="fill: #dfdf20"/>
   </g>
   <g id="patch_15">
    <path d="M 128.459071 49.569487 
L 133.604887 49.569487 
L 133.604887 46.230405 
L 128.459071 46.230405 
L 128.459071 49.569487 
z
" clip-path="url(#p579fd6dee9)" style="fill: #20b1df"/>
   </g>
   <g id="patch_16">
    <path d="M 133.709904 83.109579 
L 138.855721 83.109579 
L 138.855721 67.417205 
L 133.709904 67.417205 
L 133.709904 83.109579 
z
" clip-path="url(#p579fd6dee9)" style="fill: #eb7f75"/>
   </g>
   <g id="patch_17">
    <path d="M 138.960737 40.906207 
L 144.106554 40.906207 
L 144.106554 37.920675 
L 138.960737 37.920675 
L 138.960737 40.906207 
z
" clip-path="url(#p579fd6dee9)" style="fill: #dfdf20"/>
   </g>
   <g id="patch_18">
    <path d="M 148.149696 65.222578 
L 153.295513 65.222578 
L 153.295513 54.571562 
L 148.149696 54.571562 
L 148.149696 65.222578 
z
" clip-path="url(#p579fd6dee9)" style="fill: #20b1df"/>
   </g>
   <g id="patch_19">
    <path d="M 153.400529 93.86535 
L 158.546346 93.86535 
L 158.546346 75.656225 
L 153.400529 75.656225 
L 153.400529 93.86535 
z
" clip-path="url(#p579fd6dee9)" style="fill: #eb7f75"/>
   </g>
   <g id="patch_20">
    <path d="M 158.651363 59.814575 
L 163.797179 59.814575 
L 163.797179 47.72579 
L 158.651363 47.72579 
L 158.651363 59.814575 
z
" clip-path="url(#p579fd6dee9)" style="fill: #dfdf20"/>
   </g>
   <g id="patch_21">
    <path d="M 167.840321 114.415761 
L 172.986137 114.415761 
L 172.986137 77.67015 
L 167.840321 77.67015 
L 167.840321 114.415761 
z
" clip-path="url(#p579fd6dee9)" style="fill: #20b1df"/>
   </g>
   <g id="patch_22">
    <path d="M 173.091154 116.626102 
L 178.236971 116.626102 
L 178.236971 94.163903 
L 173.091154 94.163903 
L 173.091154 116.626102 
z
" clip-path="url(#p579fd6dee9)" style="fill: #eb7f75"/>
   </g>
   <g id="patch_23">
    <path d="M 178.341987 113.80556 
L 183.487804 113.80556 
L 183.487804 77.217082 
L 178.341987 77.217082 
L 178.341987 113.80556 
z
" clip-path="url(#p579fd6dee9)" style="fill: #dfdf20"/>
   </g>
   <g id="patch_24">
    <path d="M 187.530946 145.001748 
L 192.676762 145.001748 
L 192.676762 111.367376 
L 187.530946 111.367376 
L 187.530946 145.001748 
z
" clip-path="url(#p579fd6dee9)" style="fill: #20b1df"/>
   </g>
   <g id="patch_25">
    <path d="M 192.781779 173.497863 
L 197.927596 173.497863 
L 197.927596 118.048158 
L 192.781779 118.048158 
L 192.781779 173.497863 
z
" clip-path="url(#p579fd6dee9)" style="fill: #eb7f75"/>
   </g>
   <g id="patch_26">
    <path d="M 198.032612 146.717119 
L 203.178429 146.717119 
L 203.178429 103.570947 
L 198.032612 103.570947 
L 198.032612 146.717119 
z
" clip-path="url(#p579fd6dee9)" style="fill: #dfdf20"/>
   </g>
   <g id="patch_27">
    <path d="M 57.520313 434.525 
L 57.520313 434.525 
L 57.520313 434.525 
L 57.520313 434.525 
z
" clip-path="url(#p579fd6dee9)" style="fill: #20b1df; stroke: #4c4c4c; stroke-width: 0.75; stroke-linejoin: miter"/>
   </g>
   <g id="patch_28">
    <path d="M 57.520313 434.525 
L 57.520313 434.525 
L 57.520313 434.525 
L 57.520313 434.525 
z
" clip-path="url(#p579fd6dee9)" style="fill: #eb7f75; stroke: #4c4c4c; stroke-width: 0.75; stroke-linejoin: miter"/>
   </g>
   <g id="patch_29">
    <path d="M 57.520313 434.525 
L 57.520313 434.525 
L 57.520313 434.525 
L 57.520313 434.525 
z
" clip-path="url(#p579fd6dee9)" style="fill: #dfdf20; stroke: #4c4c4c; stroke-width: 0.75; stroke-linejoin: miter"/>
   </g>
   <g id="matplotlib.axis_1">
    <g id="xtick_1">
     <g id="line2d_1">
      <defs>
       <path id="ma82d83de98" d="M 0 0 
L 0 3.5 
" style="stroke: #000000; stroke-width: 0.8"/>
      </defs>
      <g>
       <use xlink:href="#ma82d83de98" x="57.520313" y="210.2" style="stroke: #000000; stroke-width: 0.8"/>
      </g>
     </g>
     <g id="text_1">
      <!-- 30 -->
      <g transform="translate(51.157813 224.798438)scale(0.1 -0.1)">
       <defs>
        <path id="DejaVuSans-33" d="M 2597 2516 
Q 3050 2419 3304 2112 
Q 3559 1806 3559 1356 
Q 3559 666 3084 287 
Q 2609 -91 1734 -91 
Q 1441 -91 1130 -33 
Q 819 25 488 141 
L 488 750 
Q 750 597 1062 519 
Q 1375 441 1716 441 
Q 2309 441 2620 675 
Q 2931 909 2931 1356 
Q 2931 1769 2642 2001 
Q 2353 2234 1838 2234 
L 1294 2234 
L 1294 2753 
L 1863 2753 
Q 2328 2753 2575 2939 
Q 2822 3125 2822 3475 
Q 2822 3834 2567 4026 
Q 2313 4219 1838 4219 
Q 1578 4219 1281 4162 
Q 984 4106 628 3988 
L 628 4550 
Q 988 4650 1302 4700 
Q 1616 4750 1894 4750 
Q 2613 4750 3031 4423 
Q 3450 4097 3450 3541 
Q 3450 3153 3228 2886 
Q 3006 2619 2597 2516 
z
" transform="scale(0.015625)"/>
        <path id="DejaVuSans-30" d="M 2034 4250 
Q 1547 4250 1301 3770 
Q 1056 3291 1056 2328 
Q 1056 1369 1301 889 
Q 1547 409 2034 409 
Q 2525 409 2770 889 
Q 3016 1369 3016 2328 
Q 3016 3291 2770 3770 
Q 2525 4250 2034 4250 
z
M 2034 4750 
Q 2819 4750 3233 4129 
Q 3647 3509 3647 2328 
Q 3647 1150 3233 529 
Q 2819 -91 2034 -91 
Q 1250 -91 836 529 
Q 422 1150 422 2328 
Q 422 3509 836 4129 
Q 1250 4750 2034 4750 
z
" transform="scale(0.015625)"/>
       </defs>
       <use xlink:href="#DejaVuSans-33"/>
       <use xlink:href="#DejaVuSans-30" x="63.623047"/>
      </g>
     </g>
    </g>
    <g id="xtick_2">
     <g id="line2d_2">
      <g>
       <use xlink:href="#ma82d83de98" x="77.210938" y="210.2" style="stroke: #000000; stroke-width: 0.8"/>
      </g>
     </g>
     <g id="text_2">
      <!-- 25 -->
      <g transform="translate(70.848438 224.798438)scale(0.1 -0.1)">
       <defs>
        <path id="DejaVuSans-32" d="M 1228 531 
L 3431 531 
L 3431 0 
L 469 0 
L 469 531 
Q 828 903 1448 1529 
Q 2069 2156 2228 2338 
Q 2531 2678 2651 2914 
Q 2772 3150 2772 3378 
Q 2772 3750 2511 3984 
Q 2250 4219 1831 4219 
Q 1534 4219 1204 4116 
Q 875 4013 500 3803 
L 500 4441 
Q 881 4594 1212 4672 
Q 1544 4750 1819 4750 
Q 2544 4750 2975 4387 
Q 3406 4025 3406 3419 
Q 3406 3131 3298 2873 
Q 3191 2616 2906 2266 
Q 2828 2175 2409 1742 
Q 1991 1309 1228 531 
z
" transform="scale(0.015625)"/>
        <path id="DejaVuSans-35" d="M 691 4666 
L 3169 4666 
L 3169 4134 
L 1269 4134 
L 1269 2991 
Q 1406 3038 1543 3061 
Q 1681 3084 1819 3084 
Q 2600 3084 3056 2656 
Q 3513 2228 3513 1497 
Q 3513 744 3044 326 
Q 2575 -91 1722 -91 
Q 1428 -91 1123 -41 
Q 819 9 494 109 
L 494 744 
Q 775 591 1075 516 
Q 1375 441 1709 441 
Q 2250 441 2565 725 
Q 2881 1009 2881 1497 
Q 2881 1984 2565 2268 
Q 2250 2553 1709 2553 
Q 1456 2553 1204 2497 
Q 953 2441 691 2322 
L 691 4666 
z
" transform="scale(0.015625)"/>
       </defs>
       <use xlink:href="#DejaVuSans-32"/>
       <use xlink:href="#DejaVuSans-35" x="63.623047"/>
      </g>
     </g>
    </g>
    <g id="xtick_3">
     <g id="line2d_3">
      <g>
       <use xlink:href="#ma82d83de98" x="96.901563" y="210.2" style="stroke: #000000; stroke-width: 0.8"/>
      </g>
     </g>
     <g id="text_3">
      <!-- 19 -->
      <g transform="translate(90.539063 224.798438)scale(0.1 -0.1)">
       <defs>
        <path id="DejaVuSans-31" d="M 794 531 
L 1825 531 
L 1825 4091 
L 703 3866 
L 703 4441 
L 1819 4666 
L 2450 4666 
L 2450 531 
L 3481 531 
L 3481 0 
L 794 0 
L 794 531 
z
" transform="scale(0.015625)"/>
        <path id="DejaVuSans-39" d="M 703 97 
L 703 672 
Q 941 559 1184 500 
Q 1428 441 1663 441 
Q 2288 441 2617 861 
Q 2947 1281 2994 2138 
Q 2813 1869 2534 1725 
Q 2256 1581 1919 1581 
Q 1219 1581 811 2004 
Q 403 2428 403 3163 
Q 403 3881 828 4315 
Q 1253 4750 1959 4750 
Q 2769 4750 3195 4129 
Q 3622 3509 3622 2328 
Q 3622 1225 3098 567 
Q 2575 -91 1691 -91 
Q 1453 -91 1209 -44 
Q 966 3 703 97 
z
M 1959 2075 
Q 2384 2075 2632 2365 
Q 2881 2656 2881 3163 
Q 2881 3666 2632 3958 
Q 2384 4250 1959 4250 
Q 1534 4250 1286 3958 
Q 1038 3666 1038 3163 
Q 1038 2656 1286 2365 
Q 1534 2075 1959 2075 
z
" transform="scale(0.015625)"/>
       </defs>
       <use xlink:href="#DejaVuSans-31"/>
       <use xlink:href="#DejaVuSans-39" x="63.623047"/>
      </g>
     </g>
    </g>
    <g id="xtick_4">
     <g id="line2d_4">
      <g>
       <use xlink:href="#ma82d83de98" x="116.592187" y="210.2" style="stroke: #000000; stroke-width: 0.8"/>
      </g>
     </g>
     <g id="text_4">
      <!-- 12 -->
      <g transform="translate(110.229687 224.798438)scale(0.1 -0.1)">
       <use xlink:href="#DejaVuSans-31"/>
       <use xlink:href="#DejaVuSans-32" x="63.623047"/>
      </g>
     </g>
    </g>
    <g id="xtick_5">
     <g id="line2d_5">
      <g>
       <use xlink:href="#ma82d83de98" x="136.282813" y="210.2" style="stroke: #000000; stroke-width: 0.8"/>
      </g>
     </g>
     <g id="text_5">
      <!-- 8 -->
      <g transform="translate(133.101562 224.798438)scale(0.1 -0.1)">
       <defs>
        <path id="DejaVuSans-38" d="M 2034 2216 
Q 1584 2216 1326 1975 
Q 1069 1734 1069 1313 
Q 1069 891 1326 650 
Q 1584 409 2034 409 
Q 2484 409 2743 651 
Q 3003 894 3003 1313 
Q 3003 1734 2745 1975 
Q 2488 2216 2034 2216 
z
M 1403 2484 
Q 997 2584 770 2862 
Q 544 3141 544 3541 
Q 544 4100 942 4425 
Q 1341 4750 2034 4750 
Q 2731 4750 3128 4425 
Q 3525 4100 3525 3541 
Q 3525 3141 3298 2862 
Q 3072 2584 2669 2484 
Q 3125 2378 3379 2068 
Q 3634 1759 3634 1313 
Q 3634 634 3220 271 
Q 2806 -91 2034 -91 
Q 1263 -91 848 271 
Q 434 634 434 1313 
Q 434 1759 690 2068 
Q 947 2378 1403 2484 
z
M 1172 3481 
Q 1172 3119 1398 2916 
Q 1625 2713 2034 2713 
Q 2441 2713 2670 2916 
Q 2900 3119 2900 3481 
Q 2900 3844 2670 4047 
Q 2441 4250 2034 4250 
Q 1625 4250 1398 4047 
Q 1172 3844 1172 3481 
z
" transform="scale(0.015625)"/>
       </defs>
       <use xlink:href="#DejaVuSans-38"/>
      </g>
     </g>
    </g>
    <g id="xtick_6">
     <g id="line2d_6">
      <g>
       <use xlink:href="#ma82d83de98" x="155.973437" y="210.2" style="stroke: #000000; stroke-width: 0.8"/>
      </g>
     </g>
     <g id="text_6">
      <!-- 4 -->
      <g transform="translate(152.792187 224.798438)scale(0.1 -0.1)">
       <defs>
        <path id="DejaVuSans-34" d="M 2419 4116 
L 825 1625 
L 2419 1625 
L 2419 4116 
z
M 2253 4666 
L 3047 4666 
L 3047 1625 
L 3713 1625 
L 3713 1100 
L 3047 1100 
L 3047 0 
L 2419 0 
L 2419 1100 
L 313 1100 
L 313 1709 
L 2253 4666 
z
" transform="scale(0.015625)"/>
       </defs>
       <use xlink:href="#DejaVuSans-34"/>
      </g>
     </g>
    </g>
    <g id="xtick_7">
     <g id="line2d_7">
      <g>
       <use xlink:href="#ma82d83de98" x="175.664062" y="210.2" style="stroke: #000000; stroke-width: 0.8"/>
      </g>
     </g>
     <g id="text_7">
      <!-- 2 -->
      <g transform="translate(172.482812 224.798438)scale(0.1 -0.1)">
       <use xlink:href="#DejaVuSans-32"/>
      </g>
     </g>
    </g>
    <g id="xtick_8">
     <g id="line2d_8">
      <g>
       <use xlink:href="#ma82d83de98" x="195.354687" y="210.2" style="stroke: #000000; stroke-width: 0.8"/>
      </g>
     </g>
     <g id="text_8">
      <!-- 1 -->
      <g transform="translate(192.173437 224.798438)scale(0.1 -0.1)">
       <use xlink:href="#DejaVuSans-31"/>
      </g>
     </g>
    </g>
    <g id="text_9">
     <!-- Number of images in training set -->
     <g transform="translate(43.839062 238.476562)scale(0.1 -0.1)">
      <defs>
       <path id="DejaVuSans-4e" d="M 628 4666 
L 1478 4666 
L 3547 763 
L 3547 4666 
L 4159 4666 
L 4159 0 
L 3309 0 
L 1241 3903 
L 1241 0 
L 628 0 
L 628 4666 
z
" transform="scale(0.015625)"/>
       <path id="DejaVuSans-75" d="M 544 1381 
L 544 3500 
L 1119 3500 
L 1119 1403 
Q 1119 906 1312 657 
Q 1506 409 1894 409 
Q 2359 409 2629 706 
Q 2900 1003 2900 1516 
L 2900 3500 
L 3475 3500 
L 3475 0 
L 2900 0 
L 2900 538 
Q 2691 219 2414 64 
Q 2138 -91 1772 -91 
Q 1169 -91 856 284 
Q 544 659 544 1381 
z
M 1991 3584 
L 1991 3584 
z
" transform="scale(0.015625)"/>
       <path id="DejaVuSans-6d" d="M 3328 2828 
Q 3544 3216 3844 3400 
Q 4144 3584 4550 3584 
Q 5097 3584 5394 3201 
Q 5691 2819 5691 2113 
L 5691 0 
L 5113 0 
L 5113 2094 
Q 5113 2597 4934 2840 
Q 4756 3084 4391 3084 
Q 3944 3084 3684 2787 
Q 3425 2491 3425 1978 
L 3425 0 
L 2847 0 
L 2847 2094 
Q 2847 2600 2669 2842 
Q 2491 3084 2119 3084 
Q 1678 3084 1418 2786 
Q 1159 2488 1159 1978 
L 1159 0 
L 581 0 
L 581 3500 
L 1159 3500 
L 1159 2956 
Q 1356 3278 1631 3431 
Q 1906 3584 2284 3584 
Q 2666 3584 2933 3390 
Q 3200 3197 3328 2828 
z
" transform="scale(0.015625)"/>
       <path id="DejaVuSans-62" d="M 3116 1747 
Q 3116 2381 2855 2742 
Q 2594 3103 2138 3103 
Q 1681 3103 1420 2742 
Q 1159 2381 1159 1747 
Q 1159 1113 1420 752 
Q 1681 391 2138 391 
Q 2594 391 2855 752 
Q 3116 1113 3116 1747 
z
M 1159 2969 
Q 1341 3281 1617 3432 
Q 1894 3584 2278 3584 
Q 2916 3584 3314 3078 
Q 3713 2572 3713 1747 
Q 3713 922 3314 415 
Q 2916 -91 2278 -91 
Q 1894 -91 1617 61 
Q 1341 213 1159 525 
L 1159 0 
L 581 0 
L 581 4863 
L 1159 4863 
L 1159 2969 
z
" transform="scale(0.015625)"/>
       <path id="DejaVuSans-65" d="M 3597 1894 
L 3597 1613 
L 953 1613 
Q 991 1019 1311 708 
Q 1631 397 2203 397 
Q 2534 397 2845 478 
Q 3156 559 3463 722 
L 3463 178 
Q 3153 47 2828 -22 
Q 2503 -91 2169 -91 
Q 1331 -91 842 396 
Q 353 884 353 1716 
Q 353 2575 817 3079 
Q 1281 3584 2069 3584 
Q 2775 3584 3186 3129 
Q 3597 2675 3597 1894 
z
M 3022 2063 
Q 3016 2534 2758 2815 
Q 2500 3097 2075 3097 
Q 1594 3097 1305 2825 
Q 1016 2553 972 2059 
L 3022 2063 
z
" transform="scale(0.015625)"/>
       <path id="DejaVuSans-72" d="M 2631 2963 
Q 2534 3019 2420 3045 
Q 2306 3072 2169 3072 
Q 1681 3072 1420 2755 
Q 1159 2438 1159 1844 
L 1159 0 
L 581 0 
L 581 3500 
L 1159 3500 
L 1159 2956 
Q 1341 3275 1631 3429 
Q 1922 3584 2338 3584 
Q 2397 3584 2469 3576 
Q 2541 3569 2628 3553 
L 2631 2963 
z
" transform="scale(0.015625)"/>
       <path id="DejaVuSans-20" transform="scale(0.015625)"/>
       <path id="DejaVuSans-6f" d="M 1959 3097 
Q 1497 3097 1228 2736 
Q 959 2375 959 1747 
Q 959 1119 1226 758 
Q 1494 397 1959 397 
Q 2419 397 2687 759 
Q 2956 1122 2956 1747 
Q 2956 2369 2687 2733 
Q 2419 3097 1959 3097 
z
M 1959 3584 
Q 2709 3584 3137 3096 
Q 3566 2609 3566 1747 
Q 3566 888 3137 398 
Q 2709 -91 1959 -91 
Q 1206 -91 779 398 
Q 353 888 353 1747 
Q 353 2609 779 3096 
Q 1206 3584 1959 3584 
z
" transform="scale(0.015625)"/>
       <path id="DejaVuSans-66" d="M 2375 4863 
L 2375 4384 
L 1825 4384 
Q 1516 4384 1395 4259 
Q 1275 4134 1275 3809 
L 1275 3500 
L 2222 3500 
L 2222 3053 
L 1275 3053 
L 1275 0 
L 697 0 
L 697 3053 
L 147 3053 
L 147 3500 
L 697 3500 
L 697 3744 
Q 697 4328 969 4595 
Q 1241 4863 1831 4863 
L 2375 4863 
z
" transform="scale(0.015625)"/>
       <path id="DejaVuSans-69" d="M 603 3500 
L 1178 3500 
L 1178 0 
L 603 0 
L 603 3500 
z
M 603 4863 
L 1178 4863 
L 1178 4134 
L 603 4134 
L 603 4863 
z
" transform="scale(0.015625)"/>
       <path id="DejaVuSans-61" d="M 2194 1759 
Q 1497 1759 1228 1600 
Q 959 1441 959 1056 
Q 959 750 1161 570 
Q 1363 391 1709 391 
Q 2188 391 2477 730 
Q 2766 1069 2766 1631 
L 2766 1759 
L 2194 1759 
z
M 3341 1997 
L 3341 0 
L 2766 0 
L 2766 531 
Q 2569 213 2275 61 
Q 1981 -91 1556 -91 
Q 1019 -91 701 211 
Q 384 513 384 1019 
Q 384 1609 779 1909 
Q 1175 2209 1959 2209 
L 2766 2209 
L 2766 2266 
Q 2766 2663 2505 2880 
Q 2244 3097 1772 3097 
Q 1472 3097 1187 3025 
Q 903 2953 641 2809 
L 641 3341 
Q 956 3463 1253 3523 
Q 1550 3584 1831 3584 
Q 2591 3584 2966 3190 
Q 3341 2797 3341 1997 
z
" transform="scale(0.015625)"/>
       <path id="DejaVuSans-67" d="M 2906 1791 
Q 2906 2416 2648 2759 
Q 2391 3103 1925 3103 
Q 1463 3103 1205 2759 
Q 947 2416 947 1791 
Q 947 1169 1205 825 
Q 1463 481 1925 481 
Q 2391 481 2648 825 
Q 2906 1169 2906 1791 
z
M 3481 434 
Q 3481 -459 3084 -895 
Q 2688 -1331 1869 -1331 
Q 1566 -1331 1297 -1286 
Q 1028 -1241 775 -1147 
L 775 -588 
Q 1028 -725 1275 -790 
Q 1522 -856 1778 -856 
Q 2344 -856 2625 -561 
Q 2906 -266 2906 331 
L 2906 616 
Q 2728 306 2450 153 
Q 2172 0 1784 0 
Q 1141 0 747 490 
Q 353 981 353 1791 
Q 353 2603 747 3093 
Q 1141 3584 1784 3584 
Q 2172 3584 2450 3431 
Q 2728 3278 2906 2969 
L 2906 3500 
L 3481 3500 
L 3481 434 
z
" transform="scale(0.015625)"/>
       <path id="DejaVuSans-73" d="M 2834 3397 
L 2834 2853 
Q 2591 2978 2328 3040 
Q 2066 3103 1784 3103 
Q 1356 3103 1142 2972 
Q 928 2841 928 2578 
Q 928 2378 1081 2264 
Q 1234 2150 1697 2047 
L 1894 2003 
Q 2506 1872 2764 1633 
Q 3022 1394 3022 966 
Q 3022 478 2636 193 
Q 2250 -91 1575 -91 
Q 1294 -91 989 -36 
Q 684 19 347 128 
L 347 722 
Q 666 556 975 473 
Q 1284 391 1588 391 
Q 1994 391 2212 530 
Q 2431 669 2431 922 
Q 2431 1156 2273 1281 
Q 2116 1406 1581 1522 
L 1381 1569 
Q 847 1681 609 1914 
Q 372 2147 372 2553 
Q 372 3047 722 3315 
Q 1072 3584 1716 3584 
Q 2034 3584 2315 3537 
Q 2597 3491 2834 3397 
z
" transform="scale(0.015625)"/>
       <path id="DejaVuSans-6e" d="M 3513 2113 
L 3513 0 
L 2938 0 
L 2938 2094 
Q 2938 2591 2744 2837 
Q 2550 3084 2163 3084 
Q 1697 3084 1428 2787 
Q 1159 2491 1159 1978 
L 1159 0 
L 581 0 
L 581 3500 
L 1159 3500 
L 1159 2956 
Q 1366 3272 1645 3428 
Q 1925 3584 2291 3584 
Q 2894 3584 3203 3211 
Q 3513 2838 3513 2113 
z
" transform="scale(0.015625)"/>
       <path id="DejaVuSans-74" d="M 1172 4494 
L 1172 3500 
L 2356 3500 
L 2356 3053 
L 1172 3053 
L 1172 1153 
Q 1172 725 1289 603 
Q 1406 481 1766 481 
L 2356 481 
L 2356 0 
L 1766 0 
Q 1100 0 847 248 
Q 594 497 594 1153 
L 594 3053 
L 172 3053 
L 172 3500 
L 594 3500 
L 594 4494 
L 1172 4494 
z
" transform="scale(0.015625)"/>
      </defs>
      <use xlink:href="#DejaVuSans-4e"/>
      <use xlink:href="#DejaVuSans-75" x="74.804688"/>
      <use xlink:href="#DejaVuSans-6d" x="138.183594"/>
      <use xlink:href="#DejaVuSans-62" x="235.595703"/>
      <use xlink:href="#DejaVuSans-65" x="299.072266"/>
      <use xlink:href="#DejaVuSans-72" x="360.595703"/>
      <use xlink:href="#DejaVuSans-20" x="401.708984"/>
      <use xlink:href="#DejaVuSans-6f" x="433.496094"/>
      <use xlink:href="#DejaVuSans-66" x="494.677734"/>
      <use xlink:href="#DejaVuSans-20" x="529.882812"/>
      <use xlink:href="#DejaVuSans-69" x="561.669922"/>
      <use xlink:href="#DejaVuSans-6d" x="589.453125"/>
      <use xlink:href="#DejaVuSans-61" x="686.865234"/>
      <use xlink:href="#DejaVuSans-67" x="748.144531"/>
      <use xlink:href="#DejaVuSans-65" x="811.621094"/>
      <use xlink:href="#DejaVuSans-73" x="873.144531"/>
      <use xlink:href="#DejaVuSans-20" x="925.244141"/>
      <use xlink:href="#DejaVuSans-69" x="957.03125"/>
      <use xlink:href="#DejaVuSans-6e" x="984.814453"/>
      <use xlink:href="#DejaVuSans-20" x="1048.193359"/>
      <use xlink:href="#DejaVuSans-74" x="1079.980469"/>
      <use xlink:href="#DejaVuSans-72" x="1119.189453"/>
      <use xlink:href="#DejaVuSans-61" x="1160.302734"/>
      <use xlink:href="#DejaVuSans-69" x="1221.582031"/>
      <use xlink:href="#DejaVuSans-6e" x="1249.365234"/>
      <use xlink:href="#DejaVuSans-69" x="1312.744141"/>
      <use xlink:href="#DejaVuSans-6e" x="1340.527344"/>
      <use xlink:href="#DejaVuSans-67" x="1403.90625"/>
      <use xlink:href="#DejaVuSans-20" x="1467.382812"/>
      <use xlink:href="#DejaVuSans-73" x="1499.169922"/>
      <use xlink:href="#DejaVuSans-65" x="1551.269531"/>
      <use xlink:href="#DejaVuSans-74" x="1612.792969"/>
     </g>
    </g>
   </g>
   <g id="matplotlib.axis_2">
    <g id="ytick_1">
     <g id="line2d_9">
      <path d="M 47.675 185.275 
L 205.2 185.275 
" clip-path="url(#p579fd6dee9)" style="fill: none; stroke-dasharray: 2.96,1.28; stroke-dashoffset: 0; stroke: #b0b0b0; stroke-opacity: 0.7; stroke-width: 0.8"/>
     </g>
     <g id="line2d_10">
      <defs>
       <path id="m75e374e1bd" d="M 0 0 
L -3.5 0 
" style="stroke: #000000; stroke-width: 0.8"/>
      </defs>
      <g>
       <use xlink:href="#m75e374e1bd" x="47.675" y="185.275" style="stroke: #000000; stroke-width: 0.8"/>
      </g>
     </g>
     <g id="text_10">
      <!-- 0.5 -->
      <g transform="translate(24.771875 189.074219)scale(0.1 -0.1)">
       <defs>
        <path id="DejaVuSans-2e" d="M 684 794 
L 1344 794 
L 1344 0 
L 684 0 
L 684 794 
z
" transform="scale(0.015625)"/>
       </defs>
       <use xlink:href="#DejaVuSans-30"/>
       <use xlink:href="#DejaVuSans-2e" x="63.623047"/>
       <use xlink:href="#DejaVuSans-35" x="95.410156"/>
      </g>
     </g>
    </g>
    <g id="ytick_2">
     <g id="line2d_11">
      <path d="M 47.675 135.425 
L 205.2 135.425 
" clip-path="url(#p579fd6dee9)" style="fill: none; stroke-dasharray: 2.96,1.28; stroke-dashoffset: 0; stroke: #b0b0b0; stroke-opacity: 0.7; stroke-width: 0.8"/>
     </g>
     <g id="line2d_12">
      <g>
       <use xlink:href="#m75e374e1bd" x="47.675" y="135.425" style="stroke: #000000; stroke-width: 0.8"/>
      </g>
     </g>
     <g id="text_11">
      <!-- 0.6 -->
      <g transform="translate(24.771875 139.224219)scale(0.1 -0.1)">
       <defs>
        <path id="DejaVuSans-36" d="M 2113 2584 
Q 1688 2584 1439 2293 
Q 1191 2003 1191 1497 
Q 1191 994 1439 701 
Q 1688 409 2113 409 
Q 2538 409 2786 701 
Q 3034 994 3034 1497 
Q 3034 2003 2786 2293 
Q 2538 2584 2113 2584 
z
M 3366 4563 
L 3366 3988 
Q 3128 4100 2886 4159 
Q 2644 4219 2406 4219 
Q 1781 4219 1451 3797 
Q 1122 3375 1075 2522 
Q 1259 2794 1537 2939 
Q 1816 3084 2150 3084 
Q 2853 3084 3261 2657 
Q 3669 2231 3669 1497 
Q 3669 778 3244 343 
Q 2819 -91 2113 -91 
Q 1303 -91 875 529 
Q 447 1150 447 2328 
Q 447 3434 972 4092 
Q 1497 4750 2381 4750 
Q 2619 4750 2861 4703 
Q 3103 4656 3366 4563 
z
" transform="scale(0.015625)"/>
       </defs>
       <use xlink:href="#DejaVuSans-30"/>
       <use xlink:href="#DejaVuSans-2e" x="63.623047"/>
       <use xlink:href="#DejaVuSans-36" x="95.410156"/>
      </g>
     </g>
    </g>
    <g id="ytick_3">
     <g id="line2d_13">
      <path d="M 47.675 85.575 
L 205.2 85.575 
" clip-path="url(#p579fd6dee9)" style="fill: none; stroke-dasharray: 2.96,1.28; stroke-dashoffset: 0; stroke: #b0b0b0; stroke-opacity: 0.7; stroke-width: 0.8"/>
     </g>
     <g id="line2d_14">
      <g>
       <use xlink:href="#m75e374e1bd" x="47.675" y="85.575" style="stroke: #000000; stroke-width: 0.8"/>
      </g>
     </g>
     <g id="text_12">
      <!-- 0.7 -->
      <g transform="translate(24.771875 89.374219)scale(0.1 -0.1)">
       <defs>
        <path id="DejaVuSans-37" d="M 525 4666 
L 3525 4666 
L 3525 4397 
L 1831 0 
L 1172 0 
L 2766 4134 
L 525 4134 
L 525 4666 
z
" transform="scale(0.015625)"/>
       </defs>
       <use xlink:href="#DejaVuSans-30"/>
       <use xlink:href="#DejaVuSans-2e" x="63.623047"/>
       <use xlink:href="#DejaVuSans-37" x="95.410156"/>
      </g>
     </g>
    </g>
    <g id="ytick_4">
     <g id="line2d_15">
      <path d="M 47.675 35.725 
L 205.2 35.725 
" clip-path="url(#p579fd6dee9)" style="fill: none; stroke-dasharray: 2.96,1.28; stroke-dashoffset: 0; stroke: #b0b0b0; stroke-opacity: 0.7; stroke-width: 0.8"/>
     </g>
     <g id="line2d_16">
      <g>
       <use xlink:href="#m75e374e1bd" x="47.675" y="35.725" style="stroke: #000000; stroke-width: 0.8"/>
      </g>
     </g>
     <g id="text_13">
      <!-- 0.8 -->
      <g transform="translate(24.771875 39.524219)scale(0.1 -0.1)">
       <use xlink:href="#DejaVuSans-30"/>
       <use xlink:href="#DejaVuSans-2e" x="63.623047"/>
       <use xlink:href="#DejaVuSans-38" x="95.410156"/>
      </g>
     </g>
    </g>
    <g id="text_14">
     <!-- F1-score (micro average) -->
     <g transform="translate(18.692188 173.354688)rotate(-90)scale(0.1 -0.1)">
      <defs>
       <path id="DejaVuSans-46" d="M 628 4666 
L 3309 4666 
L 3309 4134 
L 1259 4134 
L 1259 2759 
L 3109 2759 
L 3109 2228 
L 1259 2228 
L 1259 0 
L 628 0 
L 628 4666 
z
" transform="scale(0.015625)"/>
       <path id="DejaVuSans-2d" d="M 313 2009 
L 1997 2009 
L 1997 1497 
L 313 1497 
L 313 2009 
z
" transform="scale(0.015625)"/>
       <path id="DejaVuSans-63" d="M 3122 3366 
L 3122 2828 
Q 2878 2963 2633 3030 
Q 2388 3097 2138 3097 
Q 1578 3097 1268 2742 
Q 959 2388 959 1747 
Q 959 1106 1268 751 
Q 1578 397 2138 397 
Q 2388 397 2633 464 
Q 2878 531 3122 666 
L 3122 134 
Q 2881 22 2623 -34 
Q 2366 -91 2075 -91 
Q 1284 -91 818 406 
Q 353 903 353 1747 
Q 353 2603 823 3093 
Q 1294 3584 2113 3584 
Q 2378 3584 2631 3529 
Q 2884 3475 3122 3366 
z
" transform="scale(0.015625)"/>
       <path id="DejaVuSans-28" d="M 1984 4856 
Q 1566 4138 1362 3434 
Q 1159 2731 1159 2009 
Q 1159 1288 1364 580 
Q 1569 -128 1984 -844 
L 1484 -844 
Q 1016 -109 783 600 
Q 550 1309 550 2009 
Q 550 2706 781 3412 
Q 1013 4119 1484 4856 
L 1984 4856 
z
" transform="scale(0.015625)"/>
       <path id="DejaVuSans-76" d="M 191 3500 
L 800 3500 
L 1894 563 
L 2988 3500 
L 3597 3500 
L 2284 0 
L 1503 0 
L 191 3500 
z
" transform="scale(0.015625)"/>
       <path id="DejaVuSans-29" d="M 513 4856 
L 1013 4856 
Q 1481 4119 1714 3412 
Q 1947 2706 1947 2009 
Q 1947 1309 1714 600 
Q 1481 -109 1013 -844 
L 513 -844 
Q 928 -128 1133 580 
Q 1338 1288 1338 2009 
Q 1338 2731 1133 3434 
Q 928 4138 513 4856 
z
" transform="scale(0.015625)"/>
      </defs>
      <use xlink:href="#DejaVuSans-46"/>
      <use xlink:href="#DejaVuSans-31" x="57.519531"/>
      <use xlink:href="#DejaVuSans-2d" x="121.142578"/>
      <use xlink:href="#DejaVuSans-73" x="157.226562"/>
      <use xlink:href="#DejaVuSans-63" x="209.326172"/>
      <use xlink:href="#DejaVuSans-6f" x="264.306641"/>
      <use xlink:href="#DejaVuSans-72" x="325.488281"/>
      <use xlink:href="#DejaVuSans-65" x="364.351562"/>
      <use xlink:href="#DejaVuSans-20" x="425.875"/>
      <use xlink:href="#DejaVuSans-28" x="457.662109"/>
      <use xlink:href="#DejaVuSans-6d" x="496.675781"/>
      <use xlink:href="#DejaVuSans-69" x="594.087891"/>
      <use xlink:href="#DejaVuSans-63" x="621.871094"/>
      <use xlink:href="#DejaVuSans-72" x="676.851562"/>
      <use xlink:href="#DejaVuSans-6f" x="715.714844"/>
      <use xlink:href="#DejaVuSans-20" x="776.896484"/>
      <use xlink:href="#DejaVuSans-61" x="808.683594"/>
      <use xlink:href="#DejaVuSans-76" x="869.962891"/>
      <use xlink:href="#DejaVuSans-65" x="929.142578"/>
      <use xlink:href="#DejaVuSans-72" x="990.666016"/>
      <use xlink:href="#DejaVuSans-61" x="1031.779297"/>
      <use xlink:href="#DejaVuSans-67" x="1093.058594"/>
      <use xlink:href="#DejaVuSans-65" x="1156.535156"/>
      <use xlink:href="#DejaVuSans-29" x="1218.058594"/>
     </g>
    </g>
   </g>
   <g id="line2d_17">
    <path d="M 52.269479 33.109779 
L 52.269479 34.233282 
" clip-path="url(#p579fd6dee9)" style="fill: none; stroke: #009ad5; stroke-width: 1.5; stroke-linecap: square"/>
   </g>
   <g id="line2d_18">
    <path d="M 52.269479 31.22418 
L 52.269479 30.933483 
" clip-path="url(#p579fd6dee9)" style="fill: none; stroke: #009ad5; stroke-width: 1.5; stroke-linecap: square"/>
   </g>
   <g id="line2d_19">
    <path d="M 50.983025 34.233282 
L 53.555933 34.233282 
" clip-path="url(#p579fd6dee9)" style="fill: none; stroke: #009ad5; stroke-width: 1.5; stroke-linecap: square"/>
   </g>
   <g id="line2d_20">
    <path d="M 50.983025 30.933483 
L 53.555933 30.933483 
" clip-path="url(#p579fd6dee9)" style="fill: none; stroke: #009ad5; stroke-width: 1.5; stroke-linecap: square"/>
   </g>
   <g id="line2d_21">
    <path d="M 57.520313 54.367289 
L 57.520313 54.775835 
" clip-path="url(#p579fd6dee9)" style="fill: none; stroke: #d55143; stroke-width: 1.5; stroke-linecap: square"/>
   </g>
   <g id="line2d_22">
    <path d="M 57.520313 51.89244 
L 57.520313 49.8209 
" clip-path="url(#p579fd6dee9)" style="fill: none; stroke: #d55143; stroke-width: 1.5; stroke-linecap: square"/>
   </g>
   <g id="line2d_23">
    <path d="M 56.233858 54.775835 
L 58.806767 54.775835 
" clip-path="url(#p579fd6dee9)" style="fill: none; stroke: #d55143; stroke-width: 1.5; stroke-linecap: square"/>
   </g>
   <g id="line2d_24">
    <path d="M 56.233858 49.8209 
L 58.806767 49.8209 
" clip-path="url(#p579fd6dee9)" style="fill: none; stroke: #d55143; stroke-width: 1.5; stroke-linecap: square"/>
   </g>
   <g id="line2d_25">
    <path d="M 62.771146 25.365729 
L 62.771146 26.334717 
" clip-path="url(#p579fd6dee9)" style="fill: none; stroke: #d5d500; stroke-width: 1.5; stroke-linecap: square"/>
   </g>
   <g id="line2d_26">
    <path d="M 62.771146 21.534296 
L 62.771146 21.14932 
" clip-path="url(#p579fd6dee9)" style="fill: none; stroke: #d5d500; stroke-width: 1.5; stroke-linecap: square"/>
   </g>
   <g id="line2d_27">
    <path d="M 61.484692 26.334717 
L 64.0576 26.334717 
" clip-path="url(#p579fd6dee9)" style="fill: none; stroke: #d5d500; stroke-width: 1.5; stroke-linecap: square"/>
   </g>
   <g id="line2d_28">
    <path d="M 61.484692 21.14932 
L 64.0576 21.14932 
" clip-path="url(#p579fd6dee9)" style="fill: none; stroke: #d5d500; stroke-width: 1.5; stroke-linecap: square"/>
   </g>
   <g id="line2d_29">
    <path d="M 71.960104 36.807648 
L 71.960104 36.915022 
" clip-path="url(#p579fd6dee9)" style="fill: none; stroke: #009ad5; stroke-width: 1.5; stroke-linecap: square"/>
   </g>
   <g id="line2d_30">
    <path d="M 71.960104 34.228044 
L 71.960104 32.368634 
" clip-path="url(#p579fd6dee9)" style="fill: none; stroke: #009ad5; stroke-width: 1.5; stroke-linecap: square"/>
   </g>
   <g id="line2d_31">
    <path d="M 70.67365 36.915022 
L 73.246558 36.915022 
" clip-path="url(#p579fd6dee9)" style="fill: none; stroke: #009ad5; stroke-width: 1.5; stroke-linecap: square"/>
   </g>
   <g id="line2d_32">
    <path d="M 70.67365 32.368634 
L 73.246558 32.368634 
" clip-path="url(#p579fd6dee9)" style="fill: none; stroke: #009ad5; stroke-width: 1.5; stroke-linecap: square"/>
   </g>
   <g id="line2d_33">
    <path d="M 77.210938 56.949512 
L 77.210938 57.415674 
" clip-path="url(#p579fd6dee9)" style="fill: none; stroke: #d55143; stroke-width: 1.5; stroke-linecap: square"/>
   </g>
   <g id="line2d_34">
    <path d="M 77.210938 54.126351 
L 77.210938 52.76453 
" clip-path="url(#p579fd6dee9)" style="fill: none; stroke: #d55143; stroke-width: 1.5; stroke-linecap: square"/>
   </g>
   <g id="line2d_35">
    <path d="M 75.924483 57.415674 
L 78.497392 57.415674 
" clip-path="url(#p579fd6dee9)" style="fill: none; stroke: #d55143; stroke-width: 1.5; stroke-linecap: square"/>
   </g>
   <g id="line2d_36">
    <path d="M 75.924483 52.76453 
L 78.497392 52.76453 
" clip-path="url(#p579fd6dee9)" style="fill: none; stroke: #d55143; stroke-width: 1.5; stroke-linecap: square"/>
   </g>
   <g id="line2d_37">
    <path d="M 82.461771 27.303705 
L 82.461771 27.759392 
" clip-path="url(#p579fd6dee9)" style="fill: none; stroke: #d5d500; stroke-width: 1.5; stroke-linecap: square"/>
   </g>
   <g id="line2d_38">
    <path d="M 82.461771 24.30246 
L 82.461771 23.359661 
" clip-path="url(#p579fd6dee9)" style="fill: none; stroke: #d5d500; stroke-width: 1.5; stroke-linecap: square"/>
   </g>
   <g id="line2d_39">
    <path d="M 81.175317 27.759392 
L 83.748225 27.759392 
" clip-path="url(#p579fd6dee9)" style="fill: none; stroke: #d5d500; stroke-width: 1.5; stroke-linecap: square"/>
   </g>
   <g id="line2d_40">
    <path d="M 81.175317 23.359661 
L 83.748225 23.359661 
" clip-path="url(#p579fd6dee9)" style="fill: none; stroke: #d5d500; stroke-width: 1.5; stroke-linecap: square"/>
   </g>
   <g id="line2d_41">
    <path d="M 91.650729 38.12233 
L 91.650729 39.125364 
" clip-path="url(#p579fd6dee9)" style="fill: none; stroke: #009ad5; stroke-width: 1.5; stroke-linecap: square"/>
   </g>
   <g id="line2d_42">
    <path d="M 91.650729 34.937762 
L 91.650729 34.170428 
" clip-path="url(#p579fd6dee9)" style="fill: none; stroke: #009ad5; stroke-width: 1.5; stroke-linecap: square"/>
   </g>
   <g id="line2d_43">
    <path d="M 90.364275 39.125364 
L 92.937183 39.125364 
" clip-path="url(#p579fd6dee9)" style="fill: none; stroke: #009ad5; stroke-width: 1.5; stroke-linecap: square"/>
   </g>
   <g id="line2d_44">
    <path d="M 90.364275 34.170428 
L 92.937183 34.170428 
" clip-path="url(#p579fd6dee9)" style="fill: none; stroke: #009ad5; stroke-width: 1.5; stroke-linecap: square"/>
   </g>
   <g id="line2d_45">
    <path d="M 96.901563 61.797073 
L 96.901563 64.193355 
" clip-path="url(#p579fd6dee9)" style="fill: none; stroke: #d55143; stroke-width: 1.5; stroke-linecap: square"/>
   </g>
   <g id="line2d_46">
    <path d="M 96.901563 57.902787 
L 96.901563 56.116706 
" clip-path="url(#p579fd6dee9)" style="fill: none; stroke: #d55143; stroke-width: 1.5; stroke-linecap: square"/>
   </g>
   <g id="line2d_47">
    <path d="M 95.615108 64.193355 
L 98.188017 64.193355 
" clip-path="url(#p579fd6dee9)" style="fill: none; stroke: #d55143; stroke-width: 1.5; stroke-linecap: square"/>
   </g>
   <g id="line2d_48">
    <path d="M 95.615108 56.116706 
L 98.188017 56.116706 
" clip-path="url(#p579fd6dee9)" style="fill: none; stroke: #d55143; stroke-width: 1.5; stroke-linecap: square"/>
   </g>
   <g id="line2d_49">
    <path d="M 102.152396 28.466491 
L 102.152396 29.194542 
" clip-path="url(#p579fd6dee9)" style="fill: none; stroke: #d5d500; stroke-width: 1.5; stroke-linecap: square"/>
   </g>
   <g id="line2d_50">
    <path d="M 102.152396 25.106459 
L 102.152396 23.223479 
" clip-path="url(#p579fd6dee9)" style="fill: none; stroke: #d5d500; stroke-width: 1.5; stroke-linecap: square"/>
   </g>
   <g id="line2d_51">
    <path d="M 100.865942 29.194542 
L 103.43885 29.194542 
" clip-path="url(#p579fd6dee9)" style="fill: none; stroke: #d5d500; stroke-width: 1.5; stroke-linecap: square"/>
   </g>
   <g id="line2d_52">
    <path d="M 100.865942 23.223479 
L 103.43885 23.223479 
" clip-path="url(#p579fd6dee9)" style="fill: none; stroke: #d5d500; stroke-width: 1.5; stroke-linecap: square"/>
   </g>
   <g id="line2d_53">
    <path d="M 111.341354 42.990842 
L 111.341354 46.971551 
" clip-path="url(#p579fd6dee9)" style="fill: none; stroke: #009ad5; stroke-width: 1.5; stroke-linecap: square"/>
   </g>
   <g id="line2d_54">
    <path d="M 111.341354 39.617714 
L 111.341354 36.00365 
" clip-path="url(#p579fd6dee9)" style="fill: none; stroke: #009ad5; stroke-width: 1.5; stroke-linecap: square"/>
   </g>
   <g id="line2d_55">
    <path d="M 110.0549 46.971551 
L 112.627808 46.971551 
" clip-path="url(#p579fd6dee9)" style="fill: none; stroke: #009ad5; stroke-width: 1.5; stroke-linecap: square"/>
   </g>
   <g id="line2d_56">
    <path d="M 110.0549 36.00365 
L 112.627808 36.00365 
" clip-path="url(#p579fd6dee9)" style="fill: none; stroke: #009ad5; stroke-width: 1.5; stroke-linecap: square"/>
   </g>
   <g id="line2d_57">
    <path d="M 116.592187 76.083104 
L 116.592187 85.123504 
" clip-path="url(#p579fd6dee9)" style="fill: none; stroke: #d55143; stroke-width: 1.5; stroke-linecap: square"/>
   </g>
   <g id="line2d_58">
    <path d="M 116.592187 64.599282 
L 116.592187 60.977361 
" clip-path="url(#p579fd6dee9)" style="fill: none; stroke: #d55143; stroke-width: 1.5; stroke-linecap: square"/>
   </g>
   <g id="line2d_59">
    <path d="M 115.305733 85.123504 
L 117.878642 85.123504 
" clip-path="url(#p579fd6dee9)" style="fill: none; stroke: #d55143; stroke-width: 1.5; stroke-linecap: square"/>
   </g>
   <g id="line2d_60">
    <path d="M 115.305733 60.977361 
L 117.878642 60.977361 
" clip-path="url(#p579fd6dee9)" style="fill: none; stroke: #d55143; stroke-width: 1.5; stroke-linecap: square"/>
   </g>
   <g id="line2d_61">
    <path d="M 121.843021 38.533495 
L 121.843021 39.429154 
" clip-path="url(#p579fd6dee9)" style="fill: none; stroke: #d5d500; stroke-width: 1.5; stroke-linecap: square"/>
   </g>
   <g id="line2d_62">
    <path d="M 121.843021 30.404468 
L 121.843021 29.62404 
" clip-path="url(#p579fd6dee9)" style="fill: none; stroke: #d5d500; stroke-width: 1.5; stroke-linecap: square"/>
   </g>
   <g id="line2d_63">
    <path d="M 120.556567 39.429154 
L 123.129475 39.429154 
" clip-path="url(#p579fd6dee9)" style="fill: none; stroke: #d5d500; stroke-width: 1.5; stroke-linecap: square"/>
   </g>
   <g id="line2d_64">
    <path d="M 120.556567 29.62404 
L 123.129475 29.62404 
" clip-path="url(#p579fd6dee9)" style="fill: none; stroke: #d5d500; stroke-width: 1.5; stroke-linecap: square"/>
   </g>
   <g id="line2d_65">
    <path d="M 131.031979 49.569487 
L 131.031979 49.925656 
" clip-path="url(#p579fd6dee9)" style="fill: none; stroke: #009ad5; stroke-width: 1.5; stroke-linecap: square"/>
   </g>
   <g id="line2d_66">
    <path d="M 131.031979 46.230405 
L 131.031979 45.033574 
" clip-path="url(#p579fd6dee9)" style="fill: none; stroke: #009ad5; stroke-width: 1.5; stroke-linecap: square"/>
   </g>
   <g id="line2d_67">
    <path d="M 129.745525 49.925656 
L 132.318433 49.925656 
" clip-path="url(#p579fd6dee9)" style="fill: none; stroke: #009ad5; stroke-width: 1.5; stroke-linecap: square"/>
   </g>
   <g id="line2d_68">
    <path d="M 129.745525 45.033574 
L 132.318433 45.033574 
" clip-path="url(#p579fd6dee9)" style="fill: none; stroke: #009ad5; stroke-width: 1.5; stroke-linecap: square"/>
   </g>
   <g id="line2d_69">
    <path d="M 136.282813 83.109579 
L 136.282813 85.364441 
" clip-path="url(#p579fd6dee9)" style="fill: none; stroke: #d55143; stroke-width: 1.5; stroke-linecap: square"/>
   </g>
   <g id="line2d_70">
    <path d="M 136.282813 67.417205 
L 136.282813 63.973368 
" clip-path="url(#p579fd6dee9)" style="fill: none; stroke: #d55143; stroke-width: 1.5; stroke-linecap: square"/>
   </g>
   <g id="line2d_71">
    <path d="M 134.996358 85.364441 
L 137.569267 85.364441 
" clip-path="url(#p579fd6dee9)" style="fill: none; stroke: #d55143; stroke-width: 1.5; stroke-linecap: square"/>
   </g>
   <g id="line2d_72">
    <path d="M 134.996358 63.973368 
L 137.569267 63.973368 
" clip-path="url(#p579fd6dee9)" style="fill: none; stroke: #d55143; stroke-width: 1.5; stroke-linecap: square"/>
   </g>
   <g id="line2d_73">
    <path d="M 141.533646 40.906207 
L 141.533646 45.295463 
" clip-path="url(#p579fd6dee9)" style="fill: none; stroke: #d5d500; stroke-width: 1.5; stroke-linecap: square"/>
   </g>
   <g id="line2d_74">
    <path d="M 141.533646 37.920675 
L 141.533646 36.276014 
" clip-path="url(#p579fd6dee9)" style="fill: none; stroke: #d5d500; stroke-width: 1.5; stroke-linecap: square"/>
   </g>
   <g id="line2d_75">
    <path d="M 140.247192 45.295463 
L 142.8201 45.295463 
" clip-path="url(#p579fd6dee9)" style="fill: none; stroke: #d5d500; stroke-width: 1.5; stroke-linecap: square"/>
   </g>
   <g id="line2d_76">
    <path d="M 140.247192 36.276014 
L 142.8201 36.276014 
" clip-path="url(#p579fd6dee9)" style="fill: none; stroke: #d5d500; stroke-width: 1.5; stroke-linecap: square"/>
   </g>
   <g id="line2d_77">
    <path d="M 150.722604 65.222578 
L 150.722604 67.084607 
" clip-path="url(#p579fd6dee9)" style="fill: none; stroke: #009ad5; stroke-width: 1.5; stroke-linecap: square"/>
   </g>
   <g id="line2d_78">
    <path d="M 150.722604 54.571562 
L 150.722604 53.53972 
" clip-path="url(#p579fd6dee9)" style="fill: none; stroke: #009ad5; stroke-width: 1.5; stroke-linecap: square"/>
   </g>
   <g id="line2d_79">
    <path d="M 149.43615 67.084607 
L 152.009058 67.084607 
" clip-path="url(#p579fd6dee9)" style="fill: none; stroke: #009ad5; stroke-width: 1.5; stroke-linecap: square"/>
   </g>
   <g id="line2d_80">
    <path d="M 149.43615 53.53972 
L 152.009058 53.53972 
" clip-path="url(#p579fd6dee9)" style="fill: none; stroke: #009ad5; stroke-width: 1.5; stroke-linecap: square"/>
   </g>
   <g id="line2d_81">
    <path d="M 155.973437 93.86535 
L 155.973437 100.00926 
" clip-path="url(#p579fd6dee9)" style="fill: none; stroke: #d55143; stroke-width: 1.5; stroke-linecap: square"/>
   </g>
   <g id="line2d_82">
    <path d="M 155.973437 75.656225 
L 155.973437 71.421484 
" clip-path="url(#p579fd6dee9)" style="fill: none; stroke: #d55143; stroke-width: 1.5; stroke-linecap: square"/>
   </g>
   <g id="line2d_83">
    <path d="M 154.686983 100.00926 
L 157.259892 100.00926 
" clip-path="url(#p579fd6dee9)" style="fill: none; stroke: #d55143; stroke-width: 1.5; stroke-linecap: square"/>
   </g>
   <g id="line2d_84">
    <path d="M 154.686983 71.421484 
L 157.259892 71.421484 
" clip-path="url(#p579fd6dee9)" style="fill: none; stroke: #d55143; stroke-width: 1.5; stroke-linecap: square"/>
   </g>
   <g id="line2d_85">
    <path d="M 161.224271 59.814575 
L 161.224271 61.14497 
" clip-path="url(#p579fd6dee9)" style="fill: none; stroke: #d5d500; stroke-width: 1.5; stroke-linecap: square"/>
   </g>
   <g id="line2d_86">
    <path d="M 161.224271 47.72579 
L 161.224271 43.053695 
" clip-path="url(#p579fd6dee9)" style="fill: none; stroke: #d5d500; stroke-width: 1.5; stroke-linecap: square"/>
   </g>
   <g id="line2d_87">
    <path d="M 159.937817 61.14497 
L 162.510725 61.14497 
" clip-path="url(#p579fd6dee9)" style="fill: none; stroke: #d5d500; stroke-width: 1.5; stroke-linecap: square"/>
   </g>
   <g id="line2d_88">
    <path d="M 159.937817 43.053695 
L 162.510725 43.053695 
" clip-path="url(#p579fd6dee9)" style="fill: none; stroke: #d5d500; stroke-width: 1.5; stroke-linecap: square"/>
   </g>
   <g id="line2d_89">
    <path d="M 170.413229 114.415761 
L 170.413229 125.035349 
" clip-path="url(#p579fd6dee9)" style="fill: none; stroke: #009ad5; stroke-width: 1.5; stroke-linecap: square"/>
   </g>
   <g id="line2d_90">
    <path d="M 170.413229 77.67015 
L 170.413229 76.512602 
" clip-path="url(#p579fd6dee9)" style="fill: none; stroke: #009ad5; stroke-width: 1.5; stroke-linecap: square"/>
   </g>
   <g id="line2d_91">
    <path d="M 169.126775 125.035349 
L 171.699683 125.035349 
" clip-path="url(#p579fd6dee9)" style="fill: none; stroke: #009ad5; stroke-width: 1.5; stroke-linecap: square"/>
   </g>
   <g id="line2d_92">
    <path d="M 169.126775 76.512602 
L 171.699683 76.512602 
" clip-path="url(#p579fd6dee9)" style="fill: none; stroke: #009ad5; stroke-width: 1.5; stroke-linecap: square"/>
   </g>
   <g id="line2d_93">
    <path d="M 175.664062 116.626102 
L 175.664062 126.533353 
" clip-path="url(#p579fd6dee9)" style="fill: none; stroke: #d55143; stroke-width: 1.5; stroke-linecap: square"/>
   </g>
   <g id="line2d_94">
    <path d="M 175.664062 94.163903 
L 175.664062 89.460382 
" clip-path="url(#p579fd6dee9)" style="fill: none; stroke: #d55143; stroke-width: 1.5; stroke-linecap: square"/>
   </g>
   <g id="line2d_95">
    <path d="M 174.377608 126.533353 
L 176.950517 126.533353 
" clip-path="url(#p579fd6dee9)" style="fill: none; stroke: #d55143; stroke-width: 1.5; stroke-linecap: square"/>
   </g>
   <g id="line2d_96">
    <path d="M 174.377608 89.460382 
L 176.950517 89.460382 
" clip-path="url(#p579fd6dee9)" style="fill: none; stroke: #d55143; stroke-width: 1.5; stroke-linecap: square"/>
   </g>
   <g id="line2d_97">
    <path d="M 180.914896 113.80556 
L 180.914896 121.169871 
" clip-path="url(#p579fd6dee9)" style="fill: none; stroke: #d5d500; stroke-width: 1.5; stroke-linecap: square"/>
   </g>
   <g id="line2d_98">
    <path d="M 180.914896 77.217082 
L 180.914896 75.580278 
" clip-path="url(#p579fd6dee9)" style="fill: none; stroke: #d5d500; stroke-width: 1.5; stroke-linecap: square"/>
   </g>
   <g id="line2d_99">
    <path d="M 179.628442 121.169871 
L 182.20135 121.169871 
" clip-path="url(#p579fd6dee9)" style="fill: none; stroke: #d5d500; stroke-width: 1.5; stroke-linecap: square"/>
   </g>
   <g id="line2d_100">
    <path d="M 179.628442 75.580278 
L 182.20135 75.580278 
" clip-path="url(#p579fd6dee9)" style="fill: none; stroke: #d5d500; stroke-width: 1.5; stroke-linecap: square"/>
   </g>
   <g id="line2d_101">
    <path d="M 190.103854 145.001748 
L 190.103854 154.555449 
" clip-path="url(#p579fd6dee9)" style="fill: none; stroke: #009ad5; stroke-width: 1.5; stroke-linecap: square"/>
   </g>
   <g id="line2d_102">
    <path d="M 190.103854 111.367376 
L 190.103854 103.665227 
" clip-path="url(#p579fd6dee9)" style="fill: none; stroke: #009ad5; stroke-width: 1.5; stroke-linecap: square"/>
   </g>
   <g id="line2d_103">
    <path d="M 188.8174 154.555449 
L 191.390308 154.555449 
" clip-path="url(#p579fd6dee9)" style="fill: none; stroke: #009ad5; stroke-width: 1.5; stroke-linecap: square"/>
   </g>
   <g id="line2d_104">
    <path d="M 188.8174 103.665227 
L 191.390308 103.665227 
" clip-path="url(#p579fd6dee9)" style="fill: none; stroke: #009ad5; stroke-width: 1.5; stroke-linecap: square"/>
   </g>
   <g id="line2d_105">
    <path d="M 195.354687 173.497863 
L 195.354687 190.654195 
" clip-path="url(#p579fd6dee9)" style="fill: none; stroke: #d55143; stroke-width: 1.5; stroke-linecap: square"/>
   </g>
   <g id="line2d_106">
    <path d="M 195.354687 118.048158 
L 195.354687 110.097215 
" clip-path="url(#p579fd6dee9)" style="fill: none; stroke: #d55143; stroke-width: 1.5; stroke-linecap: square"/>
   </g>
   <g id="line2d_107">
    <path d="M 194.068233 190.654195 
L 196.641142 190.654195 
" clip-path="url(#p579fd6dee9)" style="fill: none; stroke: #d55143; stroke-width: 1.5; stroke-linecap: square"/>
   </g>
   <g id="line2d_108">
    <path d="M 194.068233 110.097215 
L 196.641142 110.097215 
" clip-path="url(#p579fd6dee9)" style="fill: none; stroke: #d55143; stroke-width: 1.5; stroke-linecap: square"/>
   </g>
   <g id="line2d_109">
    <path d="M 200.605521 146.717119 
L 200.605521 161.89881 
" clip-path="url(#p579fd6dee9)" style="fill: none; stroke: #d5d500; stroke-width: 1.5; stroke-linecap: square"/>
   </g>
   <g id="line2d_110">
    <path d="M 200.605521 103.570947 
L 200.605521 88.94708 
" clip-path="url(#p579fd6dee9)" style="fill: none; stroke: #d5d500; stroke-width: 1.5; stroke-linecap: square"/>
   </g>
   <g id="line2d_111">
    <path d="M 199.319067 161.89881 
L 201.891975 161.89881 
" clip-path="url(#p579fd6dee9)" style="fill: none; stroke: #d5d500; stroke-width: 1.5; stroke-linecap: square"/>
   </g>
   <g id="line2d_112">
    <path d="M 199.319067 88.94708 
L 201.891975 88.94708 
" clip-path="url(#p579fd6dee9)" style="fill: none; stroke: #d5d500; stroke-width: 1.5; stroke-linecap: square"/>
   </g>
   <g id="line2d_113">
    <path d="M 49.696571 32.295305 
L 54.842388 32.295305 
" clip-path="url(#p579fd6dee9)" style="fill: none; stroke: #006880; stroke-width: 1.5; stroke-linecap: square"/>
   </g>
   <g id="line2d_114">
    <path d="M 54.947404 53.125936 
L 60.093221 53.125936 
" clip-path="url(#p579fd6dee9)" style="fill: none; stroke: #803325; stroke-width: 1.5; stroke-linecap: square"/>
   </g>
   <g id="line2d_115">
    <path d="M 60.198238 23.967243 
L 65.344054 23.967243 
" clip-path="url(#p579fd6dee9)" style="fill: none; stroke: #808000; stroke-width: 1.5; stroke-linecap: square"/>
   </g>
   <g id="line2d_116">
    <path d="M 69.387196 36.223636 
L 74.533013 36.223636 
" clip-path="url(#p579fd6dee9)" style="fill: none; stroke: #006880; stroke-width: 1.5; stroke-linecap: square"/>
   </g>
   <g id="line2d_117">
    <path d="M 74.638029 55.807677 
L 79.783846 55.807677 
" clip-path="url(#p579fd6dee9)" style="fill: none; stroke: #803325; stroke-width: 1.5; stroke-linecap: square"/>
   </g>
   <g id="line2d_118">
    <path d="M 79.888863 26.334717 
L 85.034679 26.334717 
" clip-path="url(#p579fd6dee9)" style="fill: none; stroke: #808000; stroke-width: 1.5; stroke-linecap: square"/>
   </g>
   <g id="line2d_119">
    <path d="M 89.077821 36.485525 
L 94.223638 36.485525 
" clip-path="url(#p579fd6dee9)" style="fill: none; stroke: #006880; stroke-width: 1.5; stroke-linecap: square"/>
   </g>
   <g id="line2d_120">
    <path d="M 94.328654 58.960818 
L 99.474471 58.960818 
" clip-path="url(#p579fd6dee9)" style="fill: none; stroke: #803325; stroke-width: 1.5; stroke-linecap: square"/>
   </g>
   <g id="line2d_121">
    <path d="M 99.579487 27.073243 
L 104.725304 27.073243 
" clip-path="url(#p579fd6dee9)" style="fill: none; stroke: #808000; stroke-width: 1.5; stroke-linecap: square"/>
   </g>
   <g id="line2d_122">
    <path d="M 108.768446 40.712409 
L 113.914263 40.712409 
" clip-path="url(#p579fd6dee9)" style="fill: none; stroke: #006880; stroke-width: 1.5; stroke-linecap: square"/>
   </g>
   <g id="line2d_123">
    <path d="M 114.019279 66.995564 
L 119.165096 66.995564 
" clip-path="url(#p579fd6dee9)" style="fill: none; stroke: #803325; stroke-width: 1.5; stroke-linecap: square"/>
   </g>
   <g id="line2d_124">
    <path d="M 119.270113 34.317086 
L 124.415929 34.317086 
" clip-path="url(#p579fd6dee9)" style="fill: none; stroke: #808000; stroke-width: 1.5; stroke-linecap: square"/>
   </g>
   <g id="line2d_125">
    <path d="M 128.459071 47.479615 
L 133.604887 47.479615 
" clip-path="url(#p579fd6dee9)" style="fill: none; stroke: #006880; stroke-width: 1.5; stroke-linecap: square"/>
   </g>
   <g id="line2d_126">
    <path d="M 133.709904 77.916325 
L 138.855721 77.916325 
" clip-path="url(#p579fd6dee9)" style="fill: none; stroke: #803325; stroke-width: 1.5; stroke-linecap: square"/>
   </g>
   <g id="line2d_127">
    <path d="M 138.960737 40.267198 
L 144.106554 40.267198 
" clip-path="url(#p579fd6dee9)" style="fill: none; stroke: #808000; stroke-width: 1.5; stroke-linecap: square"/>
   </g>
   <g id="line2d_128">
    <path d="M 148.149696 59.159853 
L 153.295513 59.159853 
" clip-path="url(#p579fd6dee9)" style="fill: none; stroke: #006880; stroke-width: 1.5; stroke-linecap: square"/>
   </g>
   <g id="line2d_129">
    <path d="M 153.400529 81.807992 
L 158.546346 81.807992 
" clip-path="url(#p579fd6dee9)" style="fill: none; stroke: #803325; stroke-width: 1.5; stroke-linecap: square"/>
   </g>
   <g id="line2d_130">
    <path d="M 158.651363 55.472459 
L 163.797179 55.472459 
" clip-path="url(#p579fd6dee9)" style="fill: none; stroke: #808000; stroke-width: 1.5; stroke-linecap: square"/>
   </g>
   <g id="line2d_131">
    <path d="M 167.840321 102.581008 
L 172.986137 102.581008 
" clip-path="url(#p579fd6dee9)" style="fill: none; stroke: #006880; stroke-width: 1.5; stroke-linecap: square"/>
   </g>
   <g id="line2d_132">
    <path d="M 173.091154 106.095555 
L 178.236971 106.095555 
" clip-path="url(#p579fd6dee9)" style="fill: none; stroke: #803325; stroke-width: 1.5; stroke-linecap: square"/>
   </g>
   <g id="line2d_133">
    <path d="M 178.341987 105.053238 
L 183.487804 105.053238 
" clip-path="url(#p579fd6dee9)" style="fill: none; stroke: #808000; stroke-width: 1.5; stroke-linecap: square"/>
   </g>
   <g id="line2d_134">
    <path d="M 187.530946 127.413299 
L 192.676762 127.413299 
" clip-path="url(#p579fd6dee9)" style="fill: none; stroke: #006880; stroke-width: 1.5; stroke-linecap: square"/>
   </g>
   <g id="line2d_135">
    <path d="M 192.781779 154.670681 
L 197.927596 154.670681 
" clip-path="url(#p579fd6dee9)" style="fill: none; stroke: #803325; stroke-width: 1.5; stroke-linecap: square"/>
   </g>
   <g id="line2d_136">
    <path d="M 198.032612 123.453541 
L 203.178429 123.453541 
" clip-path="url(#p579fd6dee9)" style="fill: none; stroke: #808000; stroke-width: 1.5; stroke-linecap: square"/>
   </g>
   <g id="patch_30">
    <path d="M 47.675 210.2 
L 47.675 10.8 
" style="fill: none; stroke: #000000; stroke-width: 0.8; stroke-linejoin: miter; stroke-linecap: square"/>
   </g>
   <g id="patch_31">
    <path d="M 205.2 210.2 
L 205.2 10.8 
" style="fill: none; stroke: #000000; stroke-width: 0.8; stroke-linejoin: miter; stroke-linecap: square"/>
   </g>
   <g id="patch_32">
    <path d="M 47.675 210.2 
L 205.2 210.2 
" style="fill: none; stroke: #000000; stroke-width: 0.8; stroke-linejoin: miter; stroke-linecap: square"/>
   </g>
   <g id="patch_33">
    <path d="M 47.675 10.8 
L 205.2 10.8 
" style="fill: none; stroke: #000000; stroke-width: 0.8; stroke-linejoin: miter; stroke-linecap: square"/>
   </g>
   <g id="legend_1">
    <g id="patch_34">
     <path d="M 66.141406 158.56625 
L 86.141406 158.56625 
L 86.141406 151.56625 
L 66.141406 151.56625 
z
" style="fill: #20b1df; stroke: #4c4c4c; stroke-width: 0.75; stroke-linejoin: miter"/>
    </g>
    <g id="text_15">
     <!-- CLEAR-IT features -->
     <g transform="translate(94.141406 158.56625)scale(0.1 -0.1)">
      <defs>
       <path id="DejaVuSans-43" d="M 4122 4306 
L 4122 3641 
Q 3803 3938 3442 4084 
Q 3081 4231 2675 4231 
Q 1875 4231 1450 3742 
Q 1025 3253 1025 2328 
Q 1025 1406 1450 917 
Q 1875 428 2675 428 
Q 3081 428 3442 575 
Q 3803 722 4122 1019 
L 4122 359 
Q 3791 134 3420 21 
Q 3050 -91 2638 -91 
Q 1578 -91 968 557 
Q 359 1206 359 2328 
Q 359 3453 968 4101 
Q 1578 4750 2638 4750 
Q 3056 4750 3426 4639 
Q 3797 4528 4122 4306 
z
" transform="scale(0.015625)"/>
       <path id="DejaVuSans-4c" d="M 628 4666 
L 1259 4666 
L 1259 531 
L 3531 531 
L 3531 0 
L 628 0 
L 628 4666 
z
" transform="scale(0.015625)"/>
       <path id="DejaVuSans-45" d="M 628 4666 
L 3578 4666 
L 3578 4134 
L 1259 4134 
L 1259 2753 
L 3481 2753 
L 3481 2222 
L 1259 2222 
L 1259 531 
L 3634 531 
L 3634 0 
L 628 0 
L 628 4666 
z
" transform="scale(0.015625)"/>
       <path id="DejaVuSans-41" d="M 2188 4044 
L 1331 1722 
L 3047 1722 
L 2188 4044 
z
M 1831 4666 
L 2547 4666 
L 4325 0 
L 3669 0 
L 3244 1197 
L 1141 1197 
L 716 0 
L 50 0 
L 1831 4666 
z
" transform="scale(0.015625)"/>
       <path id="DejaVuSans-52" d="M 2841 2188 
Q 3044 2119 3236 1894 
Q 3428 1669 3622 1275 
L 4263 0 
L 3584 0 
L 2988 1197 
Q 2756 1666 2539 1819 
Q 2322 1972 1947 1972 
L 1259 1972 
L 1259 0 
L 628 0 
L 628 4666 
L 2053 4666 
Q 2853 4666 3247 4331 
Q 3641 3997 3641 3322 
Q 3641 2881 3436 2590 
Q 3231 2300 2841 2188 
z
M 1259 4147 
L 1259 2491 
L 2053 2491 
Q 2509 2491 2742 2702 
Q 2975 2913 2975 3322 
Q 2975 3731 2742 3939 
Q 2509 4147 2053 4147 
L 1259 4147 
z
" transform="scale(0.015625)"/>
       <path id="DejaVuSans-49" d="M 628 4666 
L 1259 4666 
L 1259 0 
L 628 0 
L 628 4666 
z
" transform="scale(0.015625)"/>
       <path id="DejaVuSans-54" d="M -19 4666 
L 3928 4666 
L 3928 4134 
L 2272 4134 
L 2272 0 
L 1638 0 
L 1638 4134 
L -19 4134 
L -19 4666 
z
" transform="scale(0.015625)"/>
      </defs>
      <use xlink:href="#DejaVuSans-43"/>
      <use xlink:href="#DejaVuSans-4c" x="69.824219"/>
      <use xlink:href="#DejaVuSans-45" x="125.537109"/>
      <use xlink:href="#DejaVuSans-41" x="188.720703"/>
      <use xlink:href="#DejaVuSans-52" x="257.128906"/>
      <use xlink:href="#DejaVuSans-2d" x="322.611328"/>
      <use xlink:href="#DejaVuSans-49" x="358.695312"/>
      <use xlink:href="#DejaVuSans-54" x="388.1875"/>
      <use xlink:href="#DejaVuSans-20" x="449.271484"/>
      <use xlink:href="#DejaVuSans-66" x="481.058594"/>
      <use xlink:href="#DejaVuSans-65" x="516.263672"/>
      <use xlink:href="#DejaVuSans-61" x="577.787109"/>
      <use xlink:href="#DejaVuSans-74" x="639.066406"/>
      <use xlink:href="#DejaVuSans-75" x="678.275391"/>
      <use xlink:href="#DejaVuSans-72" x="741.654297"/>
      <use xlink:href="#DejaVuSans-65" x="780.517578"/>
      <use xlink:href="#DejaVuSans-73" x="842.041016"/>
     </g>
    </g>
    <g id="patch_35">
     <path d="M 66.141406 173.244375 
L 86.141406 173.244375 
L 86.141406 166.244375 
L 66.141406 166.244375 
z
" style="fill: #eb7f75; stroke: #4c4c4c; stroke-width: 0.75; stroke-linejoin: miter"/>
    </g>
    <g id="text_16">
     <!-- Cell expressions -->
     <g transform="translate(94.141406 173.244375)scale(0.1 -0.1)">
      <defs>
       <path id="DejaVuSans-6c" d="M 603 4863 
L 1178 4863 
L 1178 0 
L 603 0 
L 603 4863 
z
" transform="scale(0.015625)"/>
       <path id="DejaVuSans-78" d="M 3513 3500 
L 2247 1797 
L 3578 0 
L 2900 0 
L 1881 1375 
L 863 0 
L 184 0 
L 1544 1831 
L 300 3500 
L 978 3500 
L 1906 2253 
L 2834 3500 
L 3513 3500 
z
" transform="scale(0.015625)"/>
       <path id="DejaVuSans-70" d="M 1159 525 
L 1159 -1331 
L 581 -1331 
L 581 3500 
L 1159 3500 
L 1159 2969 
Q 1341 3281 1617 3432 
Q 1894 3584 2278 3584 
Q 2916 3584 3314 3078 
Q 3713 2572 3713 1747 
Q 3713 922 3314 415 
Q 2916 -91 2278 -91 
Q 1894 -91 1617 61 
Q 1341 213 1159 525 
z
M 3116 1747 
Q 3116 2381 2855 2742 
Q 2594 3103 2138 3103 
Q 1681 3103 1420 2742 
Q 1159 2381 1159 1747 
Q 1159 1113 1420 752 
Q 1681 391 2138 391 
Q 2594 391 2855 752 
Q 3116 1113 3116 1747 
z
" transform="scale(0.015625)"/>
      </defs>
      <use xlink:href="#DejaVuSans-43"/>
      <use xlink:href="#DejaVuSans-65" x="69.824219"/>
      <use xlink:href="#DejaVuSans-6c" x="131.347656"/>
      <use xlink:href="#DejaVuSans-6c" x="159.130859"/>
      <use xlink:href="#DejaVuSans-20" x="186.914062"/>
      <use xlink:href="#DejaVuSans-65" x="218.701172"/>
      <use xlink:href="#DejaVuSans-78" x="278.474609"/>
      <use xlink:href="#DejaVuSans-70" x="337.654297"/>
      <use xlink:href="#DejaVuSans-72" x="401.130859"/>
      <use xlink:href="#DejaVuSans-65" x="439.994141"/>
      <use xlink:href="#DejaVuSans-73" x="501.517578"/>
      <use xlink:href="#DejaVuSans-73" x="553.617188"/>
      <use xlink:href="#DejaVuSans-69" x="605.716797"/>
      <use xlink:href="#DejaVuSans-6f" x="633.5"/>
      <use xlink:href="#DejaVuSans-6e" x="694.681641"/>
      <use xlink:href="#DejaVuSans-73" x="758.060547"/>
     </g>
    </g>
    <g id="patch_36">
     <path d="M 66.141406 194.56125 
L 86.141406 194.56125 
L 86.141406 187.56125 
L 66.141406 187.56125 
z
" style="fill: #dfdf20; stroke: #4c4c4c; stroke-width: 0.75; stroke-linejoin: miter"/>
    </g>
    <g id="text_17">
     <!-- CLEAR-IT features  -->
     <g transform="translate(94.141406 187.9225)scale(0.1 -0.1)">
      <use xlink:href="#DejaVuSans-43"/>
      <use xlink:href="#DejaVuSans-4c" x="69.824219"/>
      <use xlink:href="#DejaVuSans-45" x="125.537109"/>
      <use xlink:href="#DejaVuSans-41" x="188.720703"/>
      <use xlink:href="#DejaVuSans-52" x="257.128906"/>
      <use xlink:href="#DejaVuSans-2d" x="322.611328"/>
      <use xlink:href="#DejaVuSans-49" x="358.695312"/>
      <use xlink:href="#DejaVuSans-54" x="388.1875"/>
      <use xlink:href="#DejaVuSans-20" x="449.271484"/>
      <use xlink:href="#DejaVuSans-66" x="481.058594"/>
      <use xlink:href="#DejaVuSans-65" x="516.263672"/>
      <use xlink:href="#DejaVuSans-61" x="577.787109"/>
      <use xlink:href="#DejaVuSans-74" x="639.066406"/>
      <use xlink:href="#DejaVuSans-75" x="678.275391"/>
      <use xlink:href="#DejaVuSans-72" x="741.654297"/>
      <use xlink:href="#DejaVuSans-65" x="780.517578"/>
      <use xlink:href="#DejaVuSans-73" x="842.041016"/>
      <use xlink:href="#DejaVuSans-20" x="894.140625"/>
     </g>
     <!-- + cell expressions -->
     <g transform="translate(94.141406 199.120313)scale(0.1 -0.1)">
      <defs>
       <path id="DejaVuSans-2b" d="M 2944 4013 
L 2944 2272 
L 4684 2272 
L 4684 1741 
L 2944 1741 
L 2944 0 
L 2419 0 
L 2419 1741 
L 678 1741 
L 678 2272 
L 2419 2272 
L 2419 4013 
L 2944 4013 
z
" transform="scale(0.015625)"/>
      </defs>
      <use xlink:href="#DejaVuSans-2b"/>
      <use xlink:href="#DejaVuSans-20" x="83.789062"/>
      <use xlink:href="#DejaVuSans-63" x="115.576172"/>
      <use xlink:href="#DejaVuSans-65" x="170.556641"/>
      <use xlink:href="#DejaVuSans-6c" x="232.080078"/>
      <use xlink:href="#DejaVuSans-6c" x="259.863281"/>
      <use xlink:href="#DejaVuSans-20" x="287.646484"/>
      <use xlink:href="#DejaVuSans-65" x="319.433594"/>
      <use xlink:href="#DejaVuSans-78" x="379.207031"/>
      <use xlink:href="#DejaVuSans-70" x="438.386719"/>
      <use xlink:href="#DejaVuSans-72" x="501.863281"/>
      <use xlink:href="#DejaVuSans-65" x="540.726562"/>
      <use xlink:href="#DejaVuSans-73" x="602.25"/>
      <use xlink:href="#DejaVuSans-73" x="654.349609"/>
      <use xlink:href="#DejaVuSans-69" x="706.449219"/>
      <use xlink:href="#DejaVuSans-6f" x="734.232422"/>
      <use xlink:href="#DejaVuSans-6e" x="795.414062"/>
      <use xlink:href="#DejaVuSans-73" x="858.792969"/>
     </g>
    </g>
   </g>
  </g>
 </g>
 <defs>
  <clipPath id="p579fd6dee9">
   <rect x="47.675" y="10.8" width="157.525" height="199.4"/>
  </clipPath>
 </defs>
</svg>
